<?xml version="1.0" encoding="UTF-8"?>
<svg width="276px" height="29px" viewBox="0 0 276 29" version="1.1" xmlns="http://www.w3.org/2000/svg" xmlns:xlink="http://www.w3.org/1999/xlink">
    <!-- Generator: Sketch 46.2 (44496) - http://www.bohemiancoding.com/sketch -->
    <title>2004-2007</title>
    <desc>Created with Sketch.</desc>
    <defs>
        <polygon id="path-1" points="88 17.9705882 94.5 14 101 17.9705882 101 25.0294118 94.5 29 88 25.0294118"></polygon>
        <polygon id="path-2" points="118 17.9705882 124.5 14 131 17.9705882 131 25.0294118 124.5 29 118 25.0294118"></polygon>
        <polygon id="path-3" points="0 17.9705882 6.5 14 13 17.9705882 13 25.0294118 6.5 29 0 25.0294118"></polygon>
    </defs>
    <g id="science-section" stroke="none" stroke-width="1" fill="none" fill-rule="evenodd">
        <g id="mobile-science" transform="translate(-69.000000, -1097.000000)">
            <g id="2004-2007" transform="translate(69.000000, 1097.000000)">
                <g id="Group-9" transform="translate(145.000000, 0.000000)">
                    <polygon id="Rectangle-2-Copy-286" fill="#272828" opacity="0.5" points="0 17.9705882 6.5 14 13 17.9705882 13 25.0294118 6.5 29 0 25.0294118"></polygon>
                    <polygon id="Rectangle-2-Copy-298" fill="#272828" opacity="0.5" points="29 17.9705882 35.5 14 42 17.9705882 42 25.0294118 35.5 29 29 25.0294118"></polygon>
                    <polygon id="Rectangle-2-Copy-303" fill="#272828" opacity="0.5" points="37 3.97058824 43.5 0 50 3.97058824 50 11.0294118 43.5 15 37 11.0294118"></polygon>
                    <polygon id="Rectangle-2-Copy-305" fill="#272828" opacity="0.5" points="66 3.97058824 72.5 0 79 3.97058824 79 11.0294118 72.5 15 66 11.0294118"></polygon>
                    <polygon id="Rectangle-2-Copy-309" fill="#272828" opacity="0.5" points="96 3.97058824 102.5 0 109 3.97058824 109 11.0294118 102.5 15 96 11.0294118"></polygon>
                    <polygon id="Rectangle-2-Copy-301" fill="#272828" opacity="0.5" points="44 17.9705882 50.5 14 57 17.9705882 57 25.0294118 50.5 29 44 25.0294118"></polygon>
                    <polygon id="Rectangle-2-Copy-299" fill="#272828" opacity="0.5" points="15 17.9705882 21.5 14 28 17.9705882 28 25.0294118 21.5 29 15 25.0294118"></polygon>
                    <polygon id="Rectangle-2-Copy-302" fill="#272828" opacity="0.5" points="22 3.97058824 28.5 0 35 3.97058824 35 11.0294118 28.5 15 22 11.0294118"></polygon>
                    <polygon id="Rectangle-2-Copy-311" fill="#272828" opacity="0.5" points="59 17.9705882 65.5 14 72 17.9705882 72 25.0294118 65.5 29 59 25.0294118"></polygon>
                    <g id="Rectangle-2-Copy-323">
                        <use fill-opacity="0.200000003" fill="#06ADC5" fill-rule="evenodd" xlink:href="#path-1"></use>
                        <path stroke="#06ADC5" stroke-width="2" d="M89,18.5315432 L89,24.4684568 L94.5,27.8281853 L100,24.4684568 L100,18.5315432 L94.5,15.1718147 L89,18.5315432 Z"></path>
                    </g>
                    <polygon id="Rectangle-2-Copy-325" fill="#272828" opacity="0.5" points="74 17.9705882 80.5 14 87 17.9705882 87 25.0294118 80.5 29 74 25.0294118"></polygon>
                    <polygon id="Rectangle-2-Copy-330" fill="#272828" opacity="0.5" points="103 17.9705882 109.5 14 116 17.9705882 116 25.0294118 109.5 29 103 25.0294118"></polygon>
                    <g id="Rectangle-2-Copy-336">
                        <use fill="#CDEFF3" fill-rule="evenodd" xlink:href="#path-2"></use>
                        <path stroke="#06ADC5" stroke-width="2" d="M119,18.5315432 L119,24.4684568 L124.5,27.8281853 L130,24.4684568 L130,18.5315432 L124.5,15.1718147 L119,18.5315432 Z"></path>
                    </g>
                </g>
                <g id="Rectangle-2-Copy-202">
                    <use fill="#CDEFF3" fill-rule="evenodd" xlink:href="#path-3"></use>
                    <path stroke="#06ADC5" stroke-width="2" d="M1,18.5315432 L1,24.4684568 L6.5,27.8281853 L12,24.4684568 L12,18.5315432 L6.5,15.1718147 L1,18.5315432 Z"></path>
                </g>
                <polygon id="Rectangle-2-Copy-205" fill="#272828" opacity="0.5" points="14 17.9705882 20.5 14 27 17.9705882 27 25.0294118 20.5 29 14 25.0294118"></polygon>
                <polygon id="Rectangle-2-Copy-250" fill="#272828" opacity="0.5" points="58 17.9705882 64.5 14 71 17.9705882 71 25.0294118 64.5 29 58 25.0294118"></polygon>
                <polygon id="Rectangle-2-Copy-251" fill="#272828" opacity="0.5" points="29 17.9705882 35.5 14 42 17.9705882 42 25.0294118 35.5 29 29 25.0294118"></polygon>
                <polygon id="Rectangle-2-Copy-265" fill="#272828" opacity="0.5" points="88 17.9705882 94.5 14 101 17.9705882 101 25.0294118 94.5 29 88 25.0294118"></polygon>
                <polygon id="Rectangle-2-Copy-266" fill="#272828" opacity="0.5" points="73 17.9705882 79.5 14 86 17.9705882 86 25.0294118 79.5 29 73 25.0294118"></polygon>
                <polygon id="Rectangle-2-Copy-287" fill="#272828" opacity="0.5" points="117 17.9705882 123.5 14 130 17.9705882 130 25.0294118 123.5 29 117 25.0294118"></polygon>
            </g>
        </g>
    </g>
</svg>