<?xml version="1.0" encoding="UTF-8"?>
<svg width="263px" height="29px" viewBox="0 0 263 29" version="1.1" xmlns="http://www.w3.org/2000/svg" xmlns:xlink="http://www.w3.org/1999/xlink">
    <!-- Generator: Sketch 46.2 (44496) - http://www.bohemiancoding.com/sketch -->
    <title>2008-2011</title>
    <desc>Created with Sketch.</desc>
    <defs>
        <polygon id="path-1" points="147 17.9705882 153.5 14 160 17.9705882 160 25.0294118 153.5 29 147 25.0294118"></polygon>
    </defs>
    <g id="science-section" stroke="none" stroke-width="1" fill="none" fill-rule="evenodd">
        <g id="2008-2011">
            <polygon id="Rectangle-2-Copy-337" fill="#272828" opacity="0.5" points="0 17.9705882 6.5 14 13 17.9705882 13 25.0294118 6.5 29 0 25.0294118"></polygon>
            <polygon id="Rectangle-2-Copy-348" fill="#272828" opacity="0.5" points="15 17.9705882 21.5 14 28 17.9705882 28 25.0294118 21.5 29 15 25.0294118"></polygon>
            <polygon id="Rectangle-2-Copy-356" fill="#272828" opacity="0.5" points="30 17.9705882 36.5 14 43 17.9705882 43 25.0294118 36.5 29 30 25.0294118"></polygon>
            <polygon id="Rectangle-2-Copy-358" fill="#272828" opacity="0.5" points="37 3.97058824 43.5 0 50 3.97058824 50 11.0294118 43.5 15 37 11.0294118"></polygon>
            <polygon id="Rectangle-2-Copy-359" fill="#272828" opacity="0.5" points="22 3.97058824 28.5 0 35 3.97058824 35 11.0294118 28.5 15 22 11.0294118"></polygon>
            <polygon id="Rectangle-2-Copy-357" fill="#272828" opacity="0.5" points="44 17.9705882 50.5 14 57 17.9705882 57 25.0294118 50.5 29 44 25.0294118"></polygon>
            <polygon id="Rectangle-2-Copy-360" fill="#272828" opacity="0.5" points="110 3.97058824 116.5 0 123 3.97058824 123 11.0294118 116.5 15 110 11.0294118"></polygon>
            <polygon id="Rectangle-2-Copy-373" fill="#272828" opacity="0.5" points="74 17.9705882 80.5 14 87 17.9705882 87 25.0294118 80.5 29 74 25.0294118"></polygon>
            <polygon id="Rectangle-2-Copy-374" fill="#272828" opacity="0.5" points="59 17.9705882 65.5 14 72 17.9705882 72 25.0294118 65.5 29 59 25.0294118"></polygon>
            <polygon id="Rectangle-2-Copy-385" fill="#272828" opacity="0.5" points="103 17.9705882 109.5 14 116 17.9705882 116 25.0294118 109.5 29 103 25.0294118"></polygon>
            <polygon id="Rectangle-2-Copy-390" fill="#272828" opacity="0.5" points="118 17.9705882 124.5 14 131 17.9705882 131 25.0294118 124.5 29 118 25.0294118"></polygon>
            <polygon id="Rectangle-2-Copy-393" fill="#272828" opacity="0.5" points="125 3.97058824 131.5 0 138 3.97058824 138 11.0294118 131.5 15 125 11.0294118"></polygon>
            <polygon id="Rectangle-2-Copy-391" fill="#272828" opacity="0.5" points="132 17.9705882 138.5 14 145 17.9705882 145 25.0294118 138.5 29 132 25.0294118"></polygon>
            <g id="Rectangle-2-Copy-401">
                <use fill-opacity="0.200000003" fill="#06ADC5" fill-rule="evenodd" xlink:href="#path-1"></use>
                <path stroke="#06ADC5" stroke-width="2" d="M148,18.5315432 L148,24.4684568 L153.5,27.8281853 L159,24.4684568 L159,18.5315432 L153.5,15.1718147 L148,18.5315432 Z"></path>
            </g>
            <polygon id="Rectangle-2-Copy-412" fill="#272828" opacity="0.5" points="176 17.9705882 182.5 14 189 17.9705882 189 25.0294118 182.5 29 176 25.0294118"></polygon>
            <polygon id="Rectangle-2-Copy-417" fill="#272828" opacity="0.5" points="191 17.9705882 197.5 14 204 17.9705882 204 25.0294118 197.5 29 191 25.0294118"></polygon>
            <polygon id="Rectangle-2-Copy-422" fill="#272828" opacity="0.5" points="206 17.9705882 212.5 14 219 17.9705882 219 25.0294118 212.5 29 206 25.0294118"></polygon>
            <polygon id="Rectangle-2-Copy-421" fill="#272828" opacity="0.5" points="198 3.97058824 204.5 0 211 3.97058824 211 11.0294118 204.5 15 198 11.0294118"></polygon>
            <polygon id="Rectangle-2-Copy-432" fill="#272828" opacity="0.5" points="235 17.9705882 241.5 14 248 17.9705882 248 25.0294118 241.5 29 235 25.0294118"></polygon>
            <polygon id="Rectangle-2-Copy-437" fill="#272828" opacity="0.5" points="250 17.9705882 256.5 14 263 17.9705882 263 25.0294118 256.5 29 250 25.0294118"></polygon>
        </g>
    </g>
</svg>