<?xml version="1.0" encoding="UTF-8"?>
<svg width="270px" height="55px" viewBox="0 0 270 55" version="1.1" xmlns="http://www.w3.org/2000/svg" xmlns:xlink="http://www.w3.org/1999/xlink">
    <!-- Generator: Sketch 46.2 (44496) - http://www.bohemiancoding.com/sketch -->
    <title>2012-2015</title>
    <desc>Created with Sketch.</desc>
    <defs>
        <polygon id="path-1" points="30 43.9376931 36.2941176 40 42.5882353 43.9376931 42.5882353 50.9380364 36.2941176 54.8757296 30 50.9380364"></polygon>
        <polygon id="path-2" points="118 43.9376931 124.294118 40 130.588235 43.9376931 130.588235 50.9380364 124.294118 54.8757296 118 50.9380364"></polygon>
    </defs>
    <g id="science-section" stroke="none" stroke-width="1" fill="none" fill-rule="evenodd">
        <g id="2012-2015">
            <polygon id="Rectangle-2-Copy-442" fill="#272828" opacity="0.5" points="0 43.9376931 6.29411765 40 12.5882353 43.9376931 12.5882353 50.9380364 6.29411765 54.8757296 0 50.9380364"></polygon>
            <polygon id="Rectangle-2-Copy-447" fill="#272828" opacity="0.5" points="15 43.9376931 21.2941176 40 27.5882353 43.9376931 27.5882353 50.9380364 21.2941176 54.8757296 15 50.9380364"></polygon>
            <polygon id="Rectangle-2-Copy-446" fill="#272828" opacity="0.5" points="8 30.9376931 14.2941176 27 20.5882353 30.9376931 20.5882353 37.9380364 14.2941176 41.8757296 8 37.9380364"></polygon>
            <g id="Rectangle-2-Copy-452">
                <use fill-opacity="0.200000003" fill="#06ADC5" fill-rule="evenodd" xlink:href="#path-1"></use>
                <path stroke="#06ADC5" stroke-width="2" d="M31,44.4916519 L31,50.3840776 L36.2941176,53.696156 L41.5882353,50.3840776 L41.5882353,44.4916519 L36.2941176,41.1795736 L31,44.4916519 Z"></path>
            </g>
            <polygon id="Rectangle-2-Copy-457" fill="#272828" opacity="0.5" points="44 43.9376931 50.2941176 40 56.5882353 43.9376931 56.5882353 50.9380364 50.2941176 54.8757296 44 50.9380364"></polygon>
            <polygon id="Rectangle-2-Copy-456" fill="#272828" opacity="0.5" points="37 30.9376931 43.2941176 27 49.5882353 30.9376931 49.5882353 37.9380364 43.2941176 41.8757296 37 37.9380364"></polygon>
            <polygon id="Rectangle-2-Copy-467" fill="#272828" opacity="0.5" points="74 43.9376931 80.2941176 40 86.5882353 43.9376931 86.5882353 50.9380364 80.2941176 54.8757296 74 50.9380364"></polygon>
            <polygon id="Rectangle-2-Copy-472" fill="#272828" opacity="0.5" points="88 43.9376931 94.2941176 40 100.588235 43.9376931 100.588235 50.9380364 94.2941176 54.8757296 88 50.9380364"></polygon>
            <g id="Rectangle-2-Copy-482">
                <use fill-opacity="0.200000003" fill="#06ADC5" fill-rule="evenodd" xlink:href="#path-2"></use>
                <path stroke="#06ADC5" stroke-width="2" d="M119,44.4916519 L119,50.3840776 L124.294118,53.696156 L129.588235,50.3840776 L129.588235,44.4916519 L124.294118,41.1795736 L119,44.4916519 Z"></path>
            </g>
            <polygon id="Rectangle-2-Copy-487" fill="#272828" opacity="0.5" points="132 43.9376931 138.294118 40 144.588235 43.9376931 144.588235 50.9380364 138.294118 54.8757296 132 50.9380364"></polygon>
            <polygon id="Rectangle-2-Copy-486" fill="#272828" opacity="0.5" points="125 30.9376931 131.294118 27 137.588235 30.9376931 137.588235 37.9380364 131.294118 41.8757296 125 37.9380364"></polygon>
            <polygon id="Rectangle-2-Copy-492" fill="#272828" opacity="0.5" points="147 43.9376931 153.294118 40 159.588235 43.9376931 159.588235 50.9380364 153.294118 54.8757296 147 50.9380364"></polygon>
            <polygon id="Rectangle-2-Copy-497" fill="#272828" opacity="0.5" points="162 43.9376931 168.294118 40 174.588235 43.9376931 174.588235 50.9380364 168.294118 54.8757296 162 50.9380364"></polygon>
            <polygon id="Rectangle-2-Copy-502" fill="#272828" opacity="0.5" points="176 43.9376931 182.294118 40 188.588235 43.9376931 188.588235 50.9380364 182.294118 54.8757296 176 50.9380364"></polygon>
            <polygon id="Rectangle-2-Copy-501" fill="#272828" opacity="0.5" points="169 30.9376931 175.294118 27 181.588235 30.9376931 181.588235 37.9380364 175.294118 41.8757296 169 37.9380364"></polygon>
            <polygon id="Rectangle-2-Copy-500" fill="#272828" opacity="0.5" points="176 16.9376931 182.294118 13 188.588235 16.9376931 188.588235 23.9380364 182.294118 27.8757296 176 23.9380364"></polygon>
            <polygon id="Rectangle-2-Copy-507" fill="#272828" opacity="0.5" points="191 43.9376931 197.294118 40 203.588235 43.9376931 203.588235 50.9380364 197.294118 54.8757296 191 50.9380364"></polygon>
            <polygon id="Rectangle-2-Copy-506" fill="#272828" opacity="0.5" points="184 30.9376931 190.294118 27 196.588235 30.9376931 196.588235 37.9380364 190.294118 41.8757296 184 37.9380364"></polygon>
            <polygon id="Rectangle-2-Copy-505" fill="#272828" opacity="0.5" points="191 16.9376931 197.294118 13 203.588235 16.9376931 203.588235 23.9380364 197.294118 27.8757296 191 23.9380364"></polygon>
            <polygon id="Rectangle-2-Copy-512" fill="#272828" opacity="0.5" points="206 43.9376931 212.294118 40 218.588235 43.9376931 218.588235 50.9380364 212.294118 54.8757296 206 50.9380364"></polygon>
            <polygon id="Rectangle-2-Copy-511" fill="#272828" opacity="0.5" points="198 30.9376931 204.294118 27 210.588235 30.9376931 210.588235 37.9380364 204.294118 41.8757296 198 37.9380364"></polygon>
            <polygon id="Rectangle-2-Copy-510" fill="#272828" opacity="0.5" points="206 16.9376931 212.294118 13 218.588235 16.9376931 218.588235 23.9380364 212.294118 27.8757296 206 23.9380364"></polygon>
            <polygon id="Rectangle-2-Copy-509" fill="#272828" opacity="0.5" points="198 3.93769312 204.294118 0 210.588235 3.93769312 210.588235 10.9380364 204.294118 14.8757296 198 10.9380364"></polygon>
            <polygon id="Rectangle-2-Copy-517" fill="#272828" opacity="0.5" points="221 43.9376931 227.294118 40 233.588235 43.9376931 233.588235 50.9380364 227.294118 54.8757296 221 50.9380364"></polygon>
            <polygon id="Rectangle-2-Copy-516" fill="#272828" opacity="0.5" points="213 30.9376931 219.294118 27 225.588235 30.9376931 225.588235 37.9380364 219.294118 41.8757296 213 37.9380364"></polygon>
            <polygon id="Rectangle-2-Copy-515" fill="#272828" opacity="0.5" points="221 16.9376931 227.294118 13 233.588235 16.9376931 233.588235 23.9380364 227.294118 27.8757296 221 23.9380364"></polygon>
            <polygon id="Rectangle-2-Copy-518" fill="#272828" opacity="0.5" points="184 3.93769312 190.294118 0 196.588235 3.93769312 196.588235 10.9380364 190.294118 14.8757296 184 10.9380364"></polygon>
            <polygon id="Rectangle-2-Copy-522" fill="#272828" opacity="0.5" points="235 43.9376931 241.294118 40 247.588235 43.9376931 247.588235 50.9380364 241.294118 54.8757296 235 50.9380364"></polygon>
            <polygon id="Rectangle-2-Copy-521" fill="#272828" opacity="0.5" points="228 30.9376931 234.294118 27 240.588235 30.9376931 240.588235 37.9380364 234.294118 41.8757296 228 37.9380364"></polygon>
            <polygon id="Rectangle-2-Copy-520" fill="#272828" opacity="0.5" points="235 16.9376931 241.294118 13 247.588235 16.9376931 247.588235 23.9380364 241.294118 27.8757296 235 23.9380364"></polygon>
            <polygon id="Rectangle-2-Copy-527" fill="#272828" opacity="0.5" points="250 43.9376931 256.294118 40 262.588235 43.9376931 262.588235 50.9380364 256.294118 54.8757296 250 50.9380364"></polygon>
            <polygon id="Rectangle-2-Copy-526" fill="#272828" opacity="0.5" points="243 30.9376931 249.294118 27 255.588235 30.9376931 255.588235 37.9380364 249.294118 41.8757296 243 37.9380364"></polygon>
            <polygon id="Rectangle-2-Copy-525" fill="#272828" opacity="0.5" points="250 16.9376931 256.294118 13 262.588235 16.9376931 262.588235 23.9380364 256.294118 27.8757296 250 23.9380364"></polygon>
            <polygon id="Rectangle-2-Copy-524" fill="#272828" opacity="0.5" points="243 3.93769312 249.294118 0 255.588235 3.93769312 255.588235 10.9380364 249.294118 14.8757296 243 10.9380364"></polygon>
            <polygon id="Rectangle-2-Copy-531" fill="#272828" opacity="0.5" points="257 30.9376931 263.294118 27 269.588235 30.9376931 269.588235 37.9380364 263.294118 41.8757296 257 37.9380364"></polygon>
        </g>
    </g>
</svg>