<?xml version="1.0" encoding="UTF-8"?>
<svg width="278px" height="70px" viewBox="0 0 278 70" version="1.1" xmlns="http://www.w3.org/2000/svg" xmlns:xlink="http://www.w3.org/1999/xlink">
    <!-- Generator: Sketch 46.2 (44496) - http://www.bohemiancoding.com/sketch -->
    <title>2016-present</title>
    <desc>Created with Sketch.</desc>
    <defs>
        <polygon id="path-1" points="0 58.9376931 6.29411765 55 12.5882353 58.9376931 12.5882353 65.9380364 6.29411765 69.8757296 0 65.9380364"></polygon>
        <polygon id="path-2" points="30 58.9376931 36.2941176 55 42.5882353 58.9376931 42.5882353 65.9380364 36.2941176 69.8757296 30 65.9380364"></polygon>
        <polygon id="path-3" points="59 58.9376931 65.2941176 55 71.5882353 58.9376931 71.5882353 65.9380364 65.2941176 69.8757296 59 65.9380364"></polygon>
        <polygon id="path-4" points="118 58.9376931 124.294118 55 130.588235 58.9376931 130.588235 65.9380364 124.294118 69.8757296 118 65.9380364"></polygon>
    </defs>
    <g id="science-section" stroke="none" stroke-width="1" fill="none" fill-rule="evenodd">
        <g id="2016-present">
            <g id="Rectangle-2-Copy-532">
                <use fill-opacity="0.200000003" fill="#06ADC5" fill-rule="evenodd" xlink:href="#path-1"></use>
                <path stroke="#06ADC5" stroke-width="2" d="M1,59.4916519 L1,65.3840776 L6.29411765,68.696156 L11.5882353,65.3840776 L11.5882353,59.4916519 L6.29411765,56.1795736 L1,59.4916519 Z"></path>
            </g>
            <polygon id="Rectangle-2-Copy-530" fill="#272828" opacity="0.5" points="0 30.9376931 6.29411765 27 12.5882353 30.9376931 12.5882353 37.9380364 6.29411765 41.8757296 0 37.9380364"></polygon>
            <polygon id="Rectangle-2-Copy-537" fill="#272828" opacity="0.5" points="15 58.9376931 21.2941176 55 27.5882353 58.9376931 27.5882353 65.9380364 21.2941176 69.8757296 15 65.9380364"></polygon>
            <polygon id="Rectangle-2-Copy-536" fill="#272828" opacity="0.5" points="8 44.9376931 14.2941176 41 20.5882353 44.9376931 20.5882353 51.9380364 14.2941176 55.8757296 8 51.9380364"></polygon>
            <polygon id="Rectangle-2-Copy-535" fill="#272828" opacity="0.5" points="15 30.9376931 21.2941176 27 27.5882353 30.9376931 27.5882353 37.9380364 21.2941176 41.8757296 15 37.9380364"></polygon>
            <polygon id="Rectangle-2-Copy-534" fill="#272828" opacity="0.5" points="8 17.9376931 14.2941176 14 20.5882353 17.9376931 20.5882353 24.9380364 14.2941176 28.8757296 8 24.9380364"></polygon>
            <g id="Rectangle-2-Copy-542">
                <use fill-opacity="0.200000003" fill="#06ADC5" fill-rule="evenodd" xlink:href="#path-2"></use>
                <path stroke="#06ADC5" stroke-width="2" d="M31,59.4916519 L31,65.3840776 L36.2941176,68.696156 L41.5882353,65.3840776 L41.5882353,59.4916519 L36.2941176,56.1795736 L31,59.4916519 Z"></path>
            </g>
            <polygon id="Rectangle-2-Copy-541" fill="#272828" opacity="0.5" points="22 44.9376931 28.2941176 41 34.5882353 44.9376931 34.5882353 51.9380364 28.2941176 55.8757296 22 51.9380364"></polygon>
            <polygon id="Rectangle-2-Copy-540" fill="#272828" opacity="0.5" points="30 30.9376931 36.2941176 27 42.5882353 30.9376931 42.5882353 37.9380364 36.2941176 41.8757296 30 37.9380364"></polygon>
            <polygon id="Rectangle-2-Copy-539" fill="#272828" opacity="0.5" points="22 17.9376931 28.2941176 14 34.5882353 17.9376931 34.5882353 24.9380364 28.2941176 28.8757296 22 24.9380364"></polygon>
            <polygon id="Rectangle-2-Copy-538" fill="#272828" opacity="0.5" points="30 3.93769312 36.2941176 0 42.5882353 3.93769312 42.5882353 10.9380364 36.2941176 14.8757296 30 10.9380364"></polygon>
            <polygon id="Rectangle-2-Copy-547" fill="#272828" opacity="0.5" points="44 58.9376931 50.2941176 55 56.5882353 58.9376931 56.5882353 65.9380364 50.2941176 69.8757296 44 65.9380364"></polygon>
            <polygon id="Rectangle-2-Copy-546" fill="#272828" opacity="0.5" points="37 44.9376931 43.2941176 41 49.5882353 44.9376931 49.5882353 51.9380364 43.2941176 55.8757296 37 51.9380364"></polygon>
            <polygon id="Rectangle-2-Copy-545" fill="#272828" opacity="0.5" points="44 30.9376931 50.2941176 27 56.5882353 30.9376931 56.5882353 37.9380364 50.2941176 41.8757296 44 37.9380364"></polygon>
            <polygon id="Rectangle-2-Copy-544" fill="#272828" opacity="0.5" points="37 17.9376931 43.2941176 14 49.5882353 17.9376931 49.5882353 24.9380364 43.2941176 28.8757296 37 24.9380364"></polygon>
            <g id="Rectangle-2-Copy-552">
                <use fill-opacity="0.200000003" fill="#06ADC5" fill-rule="evenodd" xlink:href="#path-3"></use>
                <path stroke="#06ADC5" stroke-width="2" d="M60,59.4916519 L60,65.3840776 L65.2941176,68.696156 L70.5882353,65.3840776 L70.5882353,59.4916519 L65.2941176,56.1795736 L60,59.4916519 Z"></path>
            </g>
            <polygon id="Rectangle-2-Copy-551" fill="#272828" opacity="0.5" points="52 44.9376931 58.2941176 41 64.5882353 44.9376931 64.5882353 51.9380364 58.2941176 55.8757296 52 51.9380364"></polygon>
            <polygon id="Rectangle-2-Copy-550" fill="#272828" opacity="0.5" points="59 30.9376931 65.2941176 27 71.5882353 30.9376931 71.5882353 37.9380364 65.2941176 41.8757296 59 37.9380364"></polygon>
            <polygon id="Rectangle-2-Copy-549" fill="#272828" opacity="0.5" points="52 17.9376931 58.2941176 14 64.5882353 17.9376931 64.5882353 24.9380364 58.2941176 28.8757296 52 24.9380364"></polygon>
            <polygon id="Rectangle-2-Copy-557" fill="#272828" opacity="0.5" points="74 58.9376931 80.2941176 55 86.5882353 58.9376931 86.5882353 65.9380364 80.2941176 69.8757296 74 65.9380364"></polygon>
            <polygon id="Rectangle-2-Copy-556" fill="#272828" opacity="0.5" points="66 44.9376931 72.2941176 41 78.5882353 44.9376931 78.5882353 51.9380364 72.2941176 55.8757296 66 51.9380364"></polygon>
            <polygon id="Rectangle-2-Copy-555" fill="#272828" opacity="0.5" points="74 30.9376931 80.2941176 27 86.5882353 30.9376931 86.5882353 37.9380364 80.2941176 41.8757296 74 37.9380364"></polygon>
            <polygon id="Rectangle-2-Copy-554" fill="#272828" opacity="0.5" points="66 17.9376931 72.2941176 14 78.5882353 17.9376931 78.5882353 24.9380364 72.2941176 28.8757296 66 24.9380364"></polygon>
            <polygon id="Rectangle-2-Copy-553" fill="#272828" opacity="0.5" points="74 3.93769312 80.2941176 0 86.5882353 3.93769312 86.5882353 10.9380364 80.2941176 14.8757296 74 10.9380364"></polygon>
            <polygon id="Rectangle-2-Copy-562" fill="#272828" opacity="0.5" points="88 58.9376931 94.2941176 55 100.588235 58.9376931 100.588235 65.9380364 94.2941176 69.8757296 88 65.9380364"></polygon>
            <polygon id="Rectangle-2-Copy-561" fill="#272828" opacity="0.5" points="81 44.9376931 87.2941176 41 93.5882353 44.9376931 93.5882353 51.9380364 87.2941176 55.8757296 81 51.9380364"></polygon>
            <polygon id="Rectangle-2-Copy-560" fill="#272828" opacity="0.5" points="88 30.9376931 94.2941176 27 100.588235 30.9376931 100.588235 37.9380364 94.2941176 41.8757296 88 37.9380364"></polygon>
            <polygon id="Rectangle-2-Copy-559" fill="#272828" opacity="0.5" points="81 17.9376931 87.2941176 14 93.5882353 17.9376931 93.5882353 24.9380364 87.2941176 28.8757296 81 24.9380364"></polygon>
            <polygon id="Rectangle-2-Copy-558" fill="#272828" opacity="0.5" points="88 3.93769312 94.2941176 0 100.588235 3.93769312 100.588235 10.9380364 94.2941176 14.8757296 88 10.9380364"></polygon>
            <polygon id="Rectangle-2-Copy-567" fill="#272828" opacity="0.5" points="103 58.9376931 109.294118 55 115.588235 58.9376931 115.588235 65.9380364 109.294118 69.8757296 103 65.9380364"></polygon>
            <polygon id="Rectangle-2-Copy-566" fill="#272828" opacity="0.5" points="96 44.9376931 102.294118 41 108.588235 44.9376931 108.588235 51.9380364 102.294118 55.8757296 96 51.9380364"></polygon>
            <polygon id="Rectangle-2-Copy-565" fill="#272828" opacity="0.5" points="103 30.9376931 109.294118 27 115.588235 30.9376931 115.588235 37.9380364 109.294118 41.8757296 103 37.9380364"></polygon>
            <polygon id="Rectangle-2-Copy-564" fill="#272828" opacity="0.5" points="96 17.9376931 102.294118 14 108.588235 17.9376931 108.588235 24.9380364 102.294118 28.8757296 96 24.9380364"></polygon>
            <g id="Rectangle-2-Copy-572">
                <use fill-opacity="0.200000003" fill="#06ADC5" fill-rule="evenodd" xlink:href="#path-4"></use>
                <path stroke="#06ADC5" stroke-width="2" d="M119,59.4916519 L119,65.3840776 L124.294118,68.696156 L129.588235,65.3840776 L129.588235,59.4916519 L124.294118,56.1795736 L119,59.4916519 Z"></path>
            </g>
            <polygon id="Rectangle-2-Copy-571" fill="#272828" opacity="0.5" points="110 44.9376931 116.294118 41 122.588235 44.9376931 122.588235 51.9380364 116.294118 55.8757296 110 51.9380364"></polygon>
            <polygon id="Rectangle-2-Copy-570" fill="#272828" opacity="0.5" points="118 30.9376931 124.294118 27 130.588235 30.9376931 130.588235 37.9380364 124.294118 41.8757296 118 37.9380364"></polygon>
            <polygon id="Rectangle-2-Copy-569" fill="#272828" opacity="0.5" points="110 17.9376931 116.294118 14 122.588235 17.9376931 122.588235 24.9380364 116.294118 28.8757296 110 24.9380364"></polygon>
            <polygon id="Rectangle-2-Copy-577" fill="#272828" opacity="0.5" points="132 58.9376931 138.294118 55 144.588235 58.9376931 144.588235 65.9380364 138.294118 69.8757296 132 65.9380364"></polygon>
            <polygon id="Rectangle-2-Copy-576" fill="#272828" opacity="0.5" points="125 44.9376931 131.294118 41 137.588235 44.9376931 137.588235 51.9380364 131.294118 55.8757296 125 51.9380364"></polygon>
            <polygon id="Rectangle-2-Copy-575" fill="#272828" opacity="0.5" points="132 30.9376931 138.294118 27 144.588235 30.9376931 144.588235 37.9380364 138.294118 41.8757296 132 37.9380364"></polygon>
            <polygon id="Rectangle-2-Copy-574" fill="#272828" opacity="0.5" points="125 17.9376931 131.294118 14 137.588235 17.9376931 137.588235 24.9380364 131.294118 28.8757296 125 24.9380364"></polygon>
            <polygon id="Rectangle-2-Copy-573" fill="#272828" opacity="0.5" points="132 3.93769312 138.294118 0 144.588235 3.93769312 144.588235 10.9380364 138.294118 14.8757296 132 10.9380364"></polygon>
            <polygon id="Rectangle-2-Copy-582" fill="#272828" opacity="0.5" points="147 58.9376931 153.294118 55 159.588235 58.9376931 159.588235 65.9380364 153.294118 69.8757296 147 65.9380364"></polygon>
            <polygon id="Rectangle-2-Copy-581" fill="#272828" opacity="0.5" points="140 44.9376931 146.294118 41 152.588235 44.9376931 152.588235 51.9380364 146.294118 55.8757296 140 51.9380364"></polygon>
            <polygon id="Rectangle-2-Copy-580" fill="#272828" opacity="0.5" points="147 30.9376931 153.294118 27 159.588235 30.9376931 159.588235 37.9380364 153.294118 41.8757296 147 37.9380364"></polygon>
            <polygon id="Rectangle-2-Copy-579" fill="#272828" opacity="0.5" points="140 17.9376931 146.294118 14 152.588235 17.9376931 152.588235 24.9380364 146.294118 28.8757296 140 24.9380364"></polygon>
            <polygon id="Rectangle-2-Copy-587" fill="#272828" opacity="0.5" points="162 58.9376931 168.294118 55 174.588235 58.9376931 174.588235 65.9380364 168.294118 69.8757296 162 65.9380364"></polygon>
            <polygon id="Rectangle-2-Copy-586" fill="#272828" opacity="0.5" points="155 44.9376931 161.294118 41 167.588235 44.9376931 167.588235 51.9380364 161.294118 55.8757296 155 51.9380364"></polygon>
            <polygon id="Rectangle-2-Copy-585" fill="#272828" opacity="0.5" points="162 30.9376931 168.294118 27 174.588235 30.9376931 174.588235 37.9380364 168.294118 41.8757296 162 37.9380364"></polygon>
            <polygon id="Rectangle-2-Copy-584" fill="#272828" opacity="0.5" points="155 17.9376931 161.294118 14 167.588235 17.9376931 167.588235 24.9380364 161.294118 28.8757296 155 24.9380364"></polygon>
            <polygon id="Rectangle-2-Copy-583" fill="#272828" opacity="0.5" points="162 3.93769312 168.294118 0 174.588235 3.93769312 174.588235 10.9380364 168.294118 14.8757296 162 10.9380364"></polygon>
            <polygon id="Rectangle-2-Copy-592" fill="#272828" opacity="0.5" points="177 58.9376931 183.294118 55 189.588235 58.9376931 189.588235 65.9380364 183.294118 69.8757296 177 65.9380364"></polygon>
            <polygon id="Rectangle-2-Copy-591" fill="#272828" opacity="0.5" points="169 44.9376931 175.294118 41 181.588235 44.9376931 181.588235 51.9380364 175.294118 55.8757296 169 51.9380364"></polygon>
            <polygon id="Rectangle-2-Copy-590" fill="#272828" opacity="0.5" points="177 30.9376931 183.294118 27 189.588235 30.9376931 189.588235 37.9380364 183.294118 41.8757296 177 37.9380364"></polygon>
            <polygon id="Rectangle-2-Copy-589" fill="#272828" opacity="0.5" points="169 17.9376931 175.294118 14 181.588235 17.9376931 181.588235 24.9380364 175.294118 28.8757296 169 24.9380364"></polygon>
            <polygon id="Rectangle-2-Copy-596" fill="#272828" opacity="0.5" points="184 44.9376931 190.294118 41 196.588235 44.9376931 196.588235 51.9380364 190.294118 55.8757296 184 51.9380364"></polygon>
            <polygon id="Rectangle-2-Copy-594" fill="#272828" opacity="0.5" points="184 17.9376931 190.294118 14 196.588235 17.9376931 196.588235 24.9380364 190.294118 28.8757296 184 24.9380364"></polygon>
            <polygon id="Rectangle-2-Copy-597" fill="#272828" opacity="0.5" points="191 58.9376931 197.294118 55 203.588235 58.9376931 203.588235 65.9380364 197.294118 69.8757296 191 65.9380364"></polygon>
            <polygon id="Rectangle-2-Copy-595" fill="#272828" opacity="0.5" points="191 30.9376931 197.294118 27 203.588235 30.9376931 203.588235 37.9380364 197.294118 41.8757296 191 37.9380364"></polygon>
            <polygon id="Rectangle-2-Copy-602" fill="#272828" opacity="0.5" points="206 58.9376931 212.294118 55 218.588235 58.9376931 218.588235 65.9380364 212.294118 69.8757296 206 65.9380364"></polygon>
            <polygon id="Rectangle-2-Copy-601" fill="#272828" opacity="0.5" points="199 44.9376931 205.294118 41 211.588235 44.9376931 211.588235 51.9380364 205.294118 55.8757296 199 51.9380364"></polygon>
            <polygon id="Rectangle-2-Copy-600" fill="#272828" opacity="0.5" points="206 30.9376931 212.294118 27 218.588235 30.9376931 218.588235 37.9380364 212.294118 41.8757296 206 37.9380364"></polygon>
            <polygon id="Rectangle-2-Copy-599" fill="#272828" opacity="0.5" points="199 17.9376931 205.294118 14 211.588235 17.9376931 211.588235 24.9380364 205.294118 28.8757296 199 24.9380364"></polygon>
            <polygon id="Rectangle-2-Copy-607" fill="#272828" opacity="0.5" points="221 58.9376931 227.294118 55 233.588235 58.9376931 233.588235 65.9380364 227.294118 69.8757296 221 65.9380364"></polygon>
            <polygon id="Rectangle-2-Copy-606" fill="#272828" opacity="0.5" points="213 44.9376931 219.294118 41 225.588235 44.9376931 225.588235 51.9380364 219.294118 55.8757296 213 51.9380364"></polygon>
            <polygon id="Rectangle-2-Copy-605" fill="#272828" opacity="0.5" points="221 30.9376931 227.294118 27 233.588235 30.9376931 233.588235 37.9380364 227.294118 41.8757296 221 37.9380364"></polygon>
            <polygon id="Rectangle-2-Copy-604" fill="#272828" opacity="0.5" points="213 17.9376931 219.294118 14 225.588235 17.9376931 225.588235 24.9380364 219.294118 28.8757296 213 24.9380364"></polygon>
            <polygon id="Rectangle-2-Copy-603" fill="#272828" opacity="0.5" points="221 3.93769312 227.294118 0 233.588235 3.93769312 233.588235 10.9380364 227.294118 14.8757296 221 10.9380364"></polygon>
            <polygon id="Rectangle-2-Copy-612" fill="#272828" opacity="0.5" points="235 58.9376931 241.294118 55 247.588235 58.9376931 247.588235 65.9380364 241.294118 69.8757296 235 65.9380364"></polygon>
            <polygon id="Rectangle-2-Copy-611" fill="#272828" opacity="0.5" points="228 44.9376931 234.294118 41 240.588235 44.9376931 240.588235 51.9380364 234.294118 55.8757296 228 51.9380364"></polygon>
            <polygon id="Rectangle-2-Copy-610" fill="#272828" opacity="0.5" points="235 30.9376931 241.294118 27 247.588235 30.9376931 247.588235 37.9380364 241.294118 41.8757296 235 37.9380364"></polygon>
            <polygon id="Rectangle-2-Copy-609" fill="#272828" opacity="0.5" points="228 17.9376931 234.294118 14 240.588235 17.9376931 240.588235 24.9380364 234.294118 28.8757296 228 24.9380364"></polygon>
            <polygon id="Rectangle-2-Copy-608" fill="#272828" opacity="0.5" points="235 3.93769312 241.294118 0 247.588235 3.93769312 247.588235 10.9380364 241.294118 14.8757296 235 10.9380364"></polygon>
            <polygon id="Rectangle-2-Copy-617" fill="#272828" opacity="0.5" points="250 58.9376931 256.294118 55 262.588235 58.9376931 262.588235 65.9380364 256.294118 69.8757296 250 65.9380364"></polygon>
            <polygon id="Rectangle-2-Copy-616" fill="#272828" opacity="0.5" points="243 44.9376931 249.294118 41 255.588235 44.9376931 255.588235 51.9380364 249.294118 55.8757296 243 51.9380364"></polygon>
            <polygon id="Rectangle-2-Copy-615" fill="#272828" opacity="0.5" points="250 30.9376931 256.294118 27 262.588235 30.9376931 262.588235 37.9380364 256.294118 41.8757296 250 37.9380364"></polygon>
            <polygon id="Rectangle-2-Copy-614" fill="#272828" opacity="0.5" points="243 17.9376931 249.294118 14 255.588235 17.9376931 255.588235 24.9380364 249.294118 28.8757296 243 24.9380364"></polygon>
            <polygon id="Rectangle-2-Copy-622" fill="#272828" opacity="0.5" points="265 58.9376931 271.294118 55 277.588235 58.9376931 277.588235 65.9380364 271.294118 69.8757296 265 65.9380364"></polygon>
            <polygon id="Rectangle-2-Copy-621" fill="#272828" opacity="0.5" points="257 44.9376931 263.294118 41 269.588235 44.9376931 269.588235 51.9380364 263.294118 55.8757296 257 51.9380364"></polygon>
        </g>
    </g>
</svg>