<?xml version="1.0" encoding="UTF-8"?>
<svg width="173px" height="42px" viewBox="0 0 173 42" version="1.1" xmlns="http://www.w3.org/2000/svg" xmlns:xlink="http://www.w3.org/1999/xlink">
    <!-- Generator: Sketch 46 (44423) - http://www.bohemiancoding.com/sketch -->
    <title>Group 4</title>
    <desc>Created with Sketch.</desc>
    <defs></defs>
    <g id="visuals-3" stroke="none" stroke-width="1" fill="none" fill-rule="evenodd">
        <g id="landing---no-subscribe" transform="translate(-100.000000, -67.000000)" fill="#FFFFFF">
            <g id="Group-4" transform="translate(100.000000, 67.000000)">
                <path d="M60.052,16.956 L60.052,14.4 L49.612,14.4 L49.612,16.956 L53.446,16.956 L53.446,27 L56.218,27 L56.218,16.956 L60.052,16.956 Z M74.566,27 L71.326,27 L68.626,22.968 L66.448,22.968 L66.448,27 L63.676,27 L63.676,14.4 L69.436,14.4 C72.406,14.4 74.188,15.966 74.188,18.558 L74.188,18.594 C74.188,20.628 73.09,21.906 71.488,22.5 L74.566,27 Z M71.38,18.738 L71.38,18.702 C71.38,17.514 70.552,16.902 69.202,16.902 L66.448,16.902 L66.448,20.52 L69.256,20.52 C70.606,20.52 71.38,19.8 71.38,18.738 Z M88.972,21.51 L88.972,14.4 L86.2,14.4 L86.2,21.618 C86.2,23.616 85.174,24.642 83.482,24.642 C81.79,24.642 80.764,23.58 80.764,21.528 L80.764,14.4 L77.992,14.4 L77.992,21.6 C77.992,25.308 80.062,27.198 83.446,27.198 C86.83,27.198 88.972,25.326 88.972,21.51 Z" id="TRU-NIAGEN"></path>
                <g id="Group-7" opacity="0.5" transform="translate(94.000000, 14.000000)">
                    <polygon id="Path" points="11.394 13 11.394 0.4 8.658 0.4 8.658 8.158 2.754 0.4 0.198 0.4 0.198 13 2.934 13 2.934 4.99 9.036 13"></polygon>
                    <polygon id="Path" points="18.816 13 18.816 0.4 16.044 0.4 16.044 13"></polygon>
                    <path d="M35.742,13 L32.844,13 L31.692,10.174 L26.364,10.174 L25.212,13 L22.386,13 L27.786,0.31 L30.342,0.31 L35.742,13 Z M30.702,7.726 L29.028,3.64 L27.354,7.726 L30.702,7.726 Z" id="Combined-Shape"></path>
                    <path d="M49.634,11.218 L49.634,5.746 L44.162,5.746 L44.162,8.14 L46.952,8.14 L46.952,9.94 C46.25,10.444 45.35,10.696 44.342,10.696 C42.11,10.696 40.526,9.004 40.526,6.7 L40.526,6.664 C40.526,4.522 42.128,2.74 44.144,2.74 C45.602,2.74 46.466,3.208 47.438,4.018 L49.184,1.912 C47.87,0.796 46.502,0.184 44.234,0.184 C40.418,0.184 37.628,3.118 37.628,6.7 L37.628,6.736 C37.628,10.462 40.328,13.216 44.252,13.216 C46.556,13.216 48.338,12.316 49.634,11.218 Z" id="Path"></path>
                    <polygon id="Path" points="63.392 13 63.392 10.534 56.552 10.534 56.552 7.888 62.492 7.888 62.492 5.422 56.552 5.422 56.552 2.866 63.302 2.866 63.302 0.4 53.798 0.4 53.798 13"></polygon>
                    <polygon id="Path" points="78.554 13 78.554 0.4 75.818 0.4 75.818 8.158 69.914 0.4 67.358 0.4 67.358 13 70.094 13 70.094 4.99 76.196 13"></polygon>
                </g>
                <path d="M0,11.1176471 L17.5,0 L35,11.1176471 L35,30.8823529 L17.5,42 L0,30.8823529 L0,11.1176471 Z M19.1842857,27 L22.4757143,27 L22.4757143,20.4171429 L27.6014286,27 L30.5157143,27 L30.5157143,15 L27.2242857,15 L27.2242857,21.3428571 L22.2871429,15 L19.1842857,15 L19.1842857,27 Z M8.53142857,27.230031 L12.5428571,27.230031 L12.5428571,18.6243167 L16.0742857,18.6243167 L16.0742857,15.230031 L5,15.230031 L5,18.6243167 L8.53142857,18.6243167 L8.53142857,27.230031 Z" id="Combined-Shape"></path>
            </g>
        </g>
    </g>
</svg>