<?xml version="1.0" encoding="UTF-8"?>
<svg width="488px" height="425px" viewBox="0 0 488 425" version="1.1" xmlns="http://www.w3.org/2000/svg" xmlns:xlink="http://www.w3.org/1999/xlink">
    <!-- Generator: Sketch 44.1 (41455) - http://www.bohemiancoding.com/sketch -->
    <title>Group 3 Copy</title>
    <desc>Created with Sketch.</desc>
    <defs></defs>
    <g id="visuals" stroke="none" stroke-width="1" fill="none" fill-rule="evenodd" opacity="0.100000001">
        <g id="about" transform="translate(-812.000000, 0.000000)" stroke="#272828">
            <g id="Group-3-Copy" transform="translate(1122.500000, 181.500000) rotate(-180.000000) translate(-1122.500000, -181.500000) translate(813.000000, -61.000000)">
                <polygon id="Rectangle-2-Copy-9" points="206 123.558824 257.5 91 309 123.558824 309 181.441176 257.5 214 206 181.441176"></polygon>
                <polygon id="Rectangle-2-Copy-10" points="361 32.5588235 412.5 0 464 32.5588235 464 90.4411765 412.5 123 361 90.4411765"></polygon>
                <polygon id="Rectangle-2-Copy-3" points="103 124.558824 154.5 92 206 124.558824 206 182.441176 154.5 215 103 182.441176"></polygon>
                <polygon id="Rectangle-2-Copy-4" points="154 33.5588235 205.5 1 257 33.5588235 257 91.4411765 205.5 124 154 91.4411765"></polygon>
                <polygon id="Rectangle-2-Copy-6" points="103 303.558824 154.5 271 206 303.558824 206 361.441176 154.5 394 103 361.441176"></polygon>
                <polygon id="Rectangle-2-Copy-2" points="52 213.558824 103.5 181 155 213.558824 155 271.441176 103.5 304 52 271.441176"></polygon>
                <polygon id="Rectangle-2-Copy-12" points="258 213.558824 309.5 181 361 213.558824 361 271.441176 309.5 304 258 271.441176"></polygon>
                <polygon id="Rectangle-2-Copy-16" points="413 122.558824 464.5 90 516 122.558824 516 180.441176 464.5 213 413 180.441176"></polygon>
                <polygon id="Rectangle-2-Copy-7" points="52 394.558824 103.5 362 155 394.558824 155 452.441176 103.5 485 52 452.441176"></polygon>
                <polygon id="Rectangle-2-Copy-13" points="258 392.558824 309.5 360 361 392.558824 361 450.441176 309.5 483 258 450.441176"></polygon>
                <polygon id="Rectangle-2-Copy-14" points="361 213.558824 412.5 181 464 213.558824 464 271.441176 412.5 304 361 271.441176"></polygon>
                <polygon id="Rectangle-2-Copy-17" points="516 122.558824 567.5 90 619 122.558824 619 180.441176 567.5 213 516 180.441176"></polygon>
                <polygon id="Rectangle-2-Copy-15" points="361 392.558824 412.5 360 464 392.558824 464 450.441176 412.5 483 361 450.441176"></polygon>
                <polygon id="Rectangle-2-Copy-18" points="414 302.558824 465.5 270 517 302.558824 517 360.441176 465.5 393 414 360.441176"></polygon>
            </g>
        </g>
    </g>
</svg>