<?xml version="1.0" encoding="UTF-8"?>
<svg width="479px" height="243px" viewBox="0 0 479 243" version="1.1" xmlns="http://www.w3.org/2000/svg" xmlns:xlink="http://www.w3.org/1999/xlink">
    <!-- Generator: Sketch 44.1 (41455) - http://www.bohemiancoding.com/sketch -->
    <title>Group 3 Copy 2</title>
    <desc>Created with Sketch.</desc>
    <defs></defs>
    <g id="visuals" stroke="none" stroke-width="1" fill="none" fill-rule="evenodd" opacity="0.100000001">
        <g id="about" stroke="#272828">
            <g id="Group-3-Copy-2" transform="translate(168.500000, -0.500000) rotate(-180.000000) translate(-168.500000, 0.500000) translate(-141.000000, -243.000000)">
                <polygon id="Rectangle-2" points="0 124.558824 51.5 92 103 124.558824 103 182.441176 51.5 215 0 182.441176"></polygon>
                <polygon id="Rectangle-2-Copy-9" points="206 123.558824 257.5 91 309 123.558824 309 181.441176 257.5 214 206 181.441176"></polygon>
                <polygon id="Rectangle-2-Copy-10" points="361 32.5588235 412.5 0 464 32.5588235 464 90.4411765 412.5 123 361 90.4411765"></polygon>
                <polygon id="Rectangle-2-Copy-3" points="103 124.558824 154.5 92 206 124.558824 206 182.441176 154.5 215 103 182.441176"></polygon>
                <polygon id="Rectangle-2-Copy-4" points="154 33.5588235 205.5 1 257 33.5588235 257 91.4411765 205.5 124 154 91.4411765"></polygon>
                <polygon id="Rectangle-2-Copy-2" points="52 215.558824 103.5 183 155 215.558824 155 273.441176 103.5 306 52 273.441176"></polygon>
                <polygon id="Rectangle-2-Copy-12" points="258 213.558824 309.5 181 361 213.558824 361 271.441176 309.5 304 258 271.441176"></polygon>
                <polygon id="Rectangle-2-Copy-16" points="413 122.558824 464.5 90 516 122.558824 516 180.441176 464.5 213 413 180.441176"></polygon>
                <polygon id="Rectangle-2-Copy-14" points="361 213.558824 412.5 181 464 213.558824 464 271.441176 412.5 304 361 271.441176"></polygon>
            </g>
        </g>
    </g>
</svg>